
<svg version="1.0" xmlns="http://www.w3.org/2000/svg"
 width="500.000000pt" height="500.000000pt" viewBox="0 0 500.000000 500.000000"
 preserveAspectRatio="xMidYMid meet">

<g transform="translate(0.000000,500.000000) scale(0.100000,-0.100000)"
fill="#000000" stroke="none">
<path d="M2345 4494 c-16 -2 -84 -12 -150 -20 -398 -54 -790 -249 -1088 -543
-322 -316 -516 -693 -584 -1131 -26 -169 -24 -464 5 -630 61 -354 199 -658
428 -940 58 -72 224 -236 294 -292 275 -216 579 -351 920 -410 181 -31 485
-31 660 0 546 95 1010 393 1321 847 172 250 279 522 326 825 24 157 24 453 0
605 -71 437 -267 818 -579 1121 -115 112 -157 146 -273 226 -246 167 -502 270
-793 319 -111 19 -416 33 -487 23z m415 -105 c320 -47 584 -154 865 -349 64
-45 180 -148 255 -227 279 -293 447 -641 511 -1058 16 -104 16 -408 0 -510
-44 -287 -147 -563 -284 -770 -75 -112 -78 -116 -153 -206 -504 -600 -1323
-826 -2074 -572 -163 55 -314 134 -500 260 -124 85 -338 299 -423 423 -199
291 -297 537 -348 865 -15 100 -15 416 0 510 55 342 148 571 348 865 106 155
309 348 498 474 263 175 601 289 915 310 81 5 315 -4 390 -15z"/>
<path d="M2200 4204 c-25 -8 -56 -12 -68 -9 -15 4 -21 2 -17 -5 3 -6 -3 -10
-16 -10 -17 0 -20 -4 -15 -22 12 -44 48 -203 51 -228 3 -29 7 -29 118 -4 l77
17 0 37 c0 47 -6 52 -39 36 -14 -8 -37 -16 -51 -17 -20 -3 -25 0 -25 16 0 16
8 21 38 23 33 3 37 6 37 30 0 37 -12 53 -30 42 -23 -15 -67 -12 -73 5 -8 18
-2 22 55 30 46 7 46 7 36 35 -12 37 -24 40 -78 24z"/>
<path d="M2570 4200 c-6 -12 -8 -30 -5 -40 5 -15 -2 -27 -23 -45 -38 -31 -46
-65 -28 -109 18 -44 44 -57 115 -61 31 -1 73 -6 94 -10 42 -8 49 5 20 37 -14
16 -15 22 -5 36 17 24 33 62 35 86 2 17 -4 22 -35 24 -31 3 -37 0 -40 -20 -3
-22 -5 -21 -21 9 -22 40 -21 41 6 45 17 2 23 11 25 36 l3 32 -65 0 c-55 0 -67
-3 -76 -20z m48 -151 c15 -24 10 -34 -13 -26 -15 6 -22 47 -7 47 4 0 13 -9 20
-21z"/>
<path d="M1935 4122 c-16 -10 -51 -26 -77 -36 -50 -18 -59 -34 -33 -56 8 -7
15 -18 15 -24 0 -6 16 -44 35 -85 19 -40 35 -81 35 -92 0 -10 3 -19 7 -19 4 0
47 17 94 37 l87 36 -5 36 c-3 20 -8 38 -10 41 -2 2 -27 -8 -54 -24 -55 -30
-55 -30 -61 -1 -2 16 5 22 35 29 36 9 38 12 33 40 -8 41 -11 42 -51 23 -44
-21 -51 -21 -59 -2 -5 15 22 32 77 49 17 6 17 8 -3 36 -25 35 -26 35 -65 12z"/>
<path d="M1845 4100 c-3 -6 1 -7 9 -4 18 7 21 14 7 14 -6 0 -13 -4 -16 -10z"/>
<path d="M3016 4079 c-54 -43 -82 -143 -55 -202 10 -23 85 -67 112 -67 13 0
62 58 55 65 -1 1 -20 10 -41 18 -48 21 -53 36 -27 86 23 47 46 53 60 16 14
-37 43 -32 64 12 17 36 17 36 -8 61 -36 37 -120 43 -160 11z"/>
<path d="M1660 3969 c-85 -62 -86 -63 -61 -91 30 -31 121 -165 121 -177 0 -22
21 -20 57 4 20 15 39 28 41 30 3 2 -8 19 -23 37 -27 32 -27 32 -7 48 11 8 27
20 36 25 15 9 14 13 -11 43 l-28 34 -24 -26 c-28 -30 -46 -33 -55 -10 -7 18
16 40 52 50 12 3 22 12 22 18 0 15 -42 56 -56 55 -5 0 -34 -19 -64 -40z"/>
<path d="M3291 3965 c-74 -23 -131 -97 -131 -171 0 -29 7 -44 36 -70 35 -33
53 -39 104 -35 57 5 129 94 130 159 0 39 -30 90 -60 104 -16 7 -26 16 -24 20
7 11 -2 9 -55 -7z m52 -87 c11 -32 -69 -126 -89 -105 -12 11 5 52 35 85 32 34
47 40 54 20z"/>
<path d="M1437 3775 l-59 -65 34 -27 c18 -16 63 -58 101 -96 l68 -67 35 37 34
36 -32 29 -33 28 32 28 32 28 -31 28 -32 28 -27 -34 c-25 -30 -29 -32 -44 -17
-14 14 -12 19 20 52 l37 38 -24 19 c-13 11 -30 19 -38 19 -8 0 -41 -29 -73
-64z"/>
<path d="M3490 3753 c-57 -22 -120 -100 -120 -149 0 -63 79 -132 137 -118 80
19 143 90 143 162 0 37 -5 48 -37 77 -38 34 -80 44 -123 28z m80 -96 c0 -15
-45 -59 -77 -76 -25 -13 -38 -1 -28 28 12 38 105 80 105 48z"/>
<path d="M2331 3664 c-371 -52 -700 -287 -882 -629 -14 -27 -42 -97 -62 -155
-139 -406 -43 -864 249 -1178 119 -129 268 -231 433 -296 372 -147 784 -96
1113 137 273 194 442 480 485 819 16 127 16 143 0 272 -56 455 -343 816 -776
976 -160 59 -379 80 -560 54z m334 -76 c44 -6 82 -14 83 -19 2 -5 7 -7 11 -4
11 6 82 -15 77 -23 -2 -4 8 -7 23 -8 30 -1 241 -102 241 -115 0 -5 6 -9 14 -9
8 0 18 -5 22 -12 5 -7 3 -8 -6 -3 -8 5 -11 4 -6 -3 4 -6 12 -9 19 -6 13 5 59
-40 51 -50 -2 -3 -1 -4 2 -1 12 8 45 -16 38 -27 -4 -6 -3 -8 3 -5 16 10 115
-97 107 -116 -3 -9 -11 -14 -17 -10 -6 4 -7 1 -2 -7 6 -10 11 -10 20 4 11 15
15 13 39 -19 15 -20 24 -41 20 -48 -4 -6 -4 -9 1 -5 16 15 101 -135 88 -155
-4 -6 -1 -7 7 -2 10 6 12 4 7 -9 -4 -9 -3 -15 2 -12 5 3 14 -16 21 -42 7 -26
17 -53 23 -59 5 -7 7 -19 4 -27 -3 -8 -1 -16 4 -18 6 -2 11 -20 12 -41 1 -20
5 -37 9 -37 4 0 7 -8 7 -17 0 -10 3 -65 6 -123 8 -114 -4 -245 -31 -342 -9
-32 -20 -55 -24 -49 -3 6 -6 -4 -6 -22 0 -37 -53 -159 -65 -151 -5 3 -6 -1 -4
-9 3 -7 -5 -29 -18 -48 -19 -29 -29 -34 -66 -37 -31 -2 -41 0 -36 8 4 7 22 10
41 8 39 -5 39 -5 18 17 -11 11 -20 13 -28 6 -7 -6 -22 -9 -35 -8 -18 1 -19 3
-8 12 8 5 14 14 15 18 0 4 13 33 29 65 23 47 28 71 28 134 1 42 -3 74 -7 72
-14 -9 -9 10 9 36 16 24 16 24 0 11 -16 -13 -20 -11 -35 10 -25 35 -52 88 -50
96 0 5 -6 25 -16 46 -9 21 -14 43 -10 49 4 6 3 8 -3 5 -5 -3 -25 13 -42 37
-38 50 -118 94 -189 105 -50 7 -59 22 -36 65 8 16 9 24 2 20 -7 -5 -8 -3 -2 7
10 15 13 169 3 169 -10 0 -30 51 -23 61 3 5 2 8 -3 7 -4 -2 -27 16 -50 38 -24
23 -56 47 -71 53 -24 10 -29 19 -30 48 -1 20 2 41 7 47 5 6 11 16 13 21 1 6 7
9 12 7 5 -2 4 3 -3 12 -9 11 -9 16 0 22 8 4 9 3 5 -4 -4 -7 -4 -12 -1 -12 3 0
11 13 16 29 6 16 19 31 29 34 10 2 23 14 29 26 11 19 9 21 -14 21 -18 0 -24 4
-19 13 4 7 3 9 -2 4 -5 -5 -10 -12 -10 -15 -7 -31 -18 -51 -27 -45 -6 3 -7 1
-3 -5 6 -11 -31 -38 -47 -34 -4 1 -6 -2 -5 -7 2 -5 -1 -9 -7 -9 -5 0 -8 5 -7
12 2 6 0 7 -5 3 -4 -5 -8 -14 -8 -20 -1 -17 -45 -10 -67 10 -34 30 -12 133 28
133 8 0 14 9 14 21 0 11 4 17 10 14 5 -3 2 7 -7 23 -16 28 -18 29 -40 14 -31
-19 -47 -49 -32 -57 30 -19 -55 -141 -89 -128 -10 4 -13 2 -8 -5 8 -13 -21
-16 -49 -6 -35 14 -71 143 -44 159 5 4 9 15 9 26 0 11 4 18 9 14 5 -3 12 -1
16 4 3 6 -3 8 -14 6 -17 -3 -32 13 -35 37 -1 3 -5 10 -10 15 -6 5 -6 2 -1 -6
6 -11 4 -13 -11 -7 -10 4 -15 4 -11 0 4 -4 3 -12 -2 -18 -4 -6 -11 -29 -14
-51 -4 -23 -3 -34 2 -27 6 11 10 10 16 -5 20 -46 -11 -139 -50 -149 -33 -8
-78 3 -69 18 4 6 3 8 -4 4 -6 -3 -16 -1 -22 6 -41 49 -49 62 -43 71 3 6 1 7
-5 3 -7 -4 -12 -1 -12 9 0 11 5 15 15 11 10 -4 8 5 -8 29 -12 18 -24 32 -26
29 -2 -2 -10 1 -18 8 -19 15 -24 7 -28 -43 -2 -24 0 -37 4 -31 11 18 65 -34
57 -54 -3 -8 -2 -12 4 -9 20 12 10 -61 -10 -80 -11 -10 -20 -14 -20 -10 0 5
-5 4 -12 -3 -15 -15 -31 -16 -22 0 4 7 3 8 -5 4 -15 -9 -99 43 -107 67 -3 9
-14 22 -25 28 -11 5 -17 14 -14 20 4 5 2 9 -3 9 -16 0 -23 -30 -12 -51 6 -10
16 -19 23 -19 22 0 70 -57 63 -75 -3 -9 -2 -13 4 -10 16 10 34 -76 20 -98 -7
-12 -7 -17 -1 -13 7 5 8 1 5 -9 -4 -9 -13 -14 -20 -11 -7 3 -16 0 -20 -6 -5
-7 -2 -8 7 -4 8 4 1 -5 -16 -19 -16 -15 -23 -24 -15 -19 9 4 7 -2 -5 -17 -36
-42 -54 -95 -56 -166 l-2 -68 -148 0 c-95 0 -145 4 -141 10 3 6 -4 2 -15 -7
-11 -10 -26 -18 -33 -18 -17 0 -124 -52 -128 -62 -2 -5 -8 -6 -13 -2 -5 3 -14
-7 -19 -21 -5 -14 -15 -23 -20 -20 -6 4 -10 3 -8 -2 1 -4 -5 -24 -14 -44 -9
-20 -18 -53 -21 -73 -3 -20 -10 -43 -17 -51 -7 -8 -19 -32 -26 -52 l-15 -38 4
33 c2 17 -1 32 -6 32 -14 0 -1 294 13 298 6 2 8 8 4 13 -7 11 36 160 45 155 3
-2 6 9 7 25 1 17 9 35 18 42 10 7 16 17 14 22 -6 19 53 125 65 119 7 -4 9 -4
5 1 -11 11 18 60 60 102 20 20 30 33 22 29 -8 -5 19 25 60 67 41 41 78 73 82
71 5 -3 8 -1 8 5 0 5 20 24 45 41 25 17 45 29 45 26 0 -3 12 6 26 19 15 14 30
22 35 20 4 -3 11 0 14 5 9 14 56 34 74 31 7 -1 10 2 7 8 -8 12 60 35 75 25 7
-4 9 -3 6 3 -4 6 0 14 9 17 10 4 13 2 8 -7 -4 -6 1 -5 12 4 20 17 130 46 199
52 73 7 219 4 300 -5z m-75 -508 c0 -5 -2 -10 -4 -10 -3 0 -8 5 -11 10 -3 6
-1 10 4 10 6 0 11 -4 11 -10z m-90 -42 c0 -4 -4 -8 -10 -8 -5 0 -10 4 -10 9 0
5 -3 18 -6 28 -5 16 -4 16 10 -1 9 -11 16 -23 16 -28z m-50 17 c4 -5 10 -19
12 -30 4 -21 47 -33 125 -34 67 -1 59 -18 -12 -26 -39 -4 -87 -2 -120 5 -59
12 -136 1 -180 -25 -33 -20 -115 -39 -126 -28 -14 14 60 80 104 91 20 6 35 7
32 2 -6 -9 20 -21 29 -13 13 14 5 33 -14 33 -11 0 -20 5 -20 10 0 13 12 13 44
0 26 -9 47 3 24 14 -7 3 -3 3 9 1 12 -3 24 -1 28 4 8 13 53 10 65 -4z m-100
-164 c0 -5 -14 -14 -32 -20 -31 -11 -31 -11 -13 9 19 21 45 27 45 11z m30 -1
c0 -5 -2 -10 -4 -10 -3 0 -8 5 -11 10 -3 6 -1 10 4 10 6 0 11 -4 11 -10z m50
-5 c0 -2 -9 -3 -19 -2 -11 0 -18 5 -15 9 4 6 34 0 34 -7z m148 -19 c9 -10 -61
-5 -83 4 -14 7 -6 8 29 5 26 -2 51 -6 54 -9z m-115 -12 c29 -6 29 -6 7 -21
-16 -11 -52 -15 -140 -17 -65 0 -116 1 -113 4 2 3 37 15 76 26 67 21 97 22
170 8z m227 2 c0 -3 -4 -8 -10 -11 -5 -3 -10 -1 -10 4 0 6 5 11 10 11 6 0 10
-2 10 -4z m210 -19 c-6 -7 -17 -21 -24 -31 -13 -19 -14 -19 -26 3 -10 19 -9
25 1 32 8 5 20 7 27 4 6 -2 12 0 12 6 0 6 4 7 10 4 6 -4 6 -10 0 -18z m-313 7
c-3 -3 -12 -4 -19 -1 -8 3 -5 6 6 6 11 1 17 -2 13 -5z m241 -26 c14 -14 16
-38 4 -38 -5 0 -14 11 -20 25 -12 26 -4 33 16 13z m-30 -18 c18 -29 -5 -36
-28 -8 l-19 23 6 -25 c3 -14 3 -22 -1 -18 -10 8 -43 -25 -49 -49 -3 -12 -5
-10 -6 9 -1 24 -6 28 -45 33 -33 5 -55 2 -95 -15 -38 -17 -62 -21 -95 -17 -27
4 -47 2 -54 -5 -9 -9 -12 -9 -12 0 0 15 -30 4 -48 -17 -11 -14 -12 -13 -7 6 5
17 3 22 -8 17 -16 -6 -93 31 -80 39 4 2 64 4 133 4 69 0 151 6 183 12 45 10
65 10 87 1 32 -13 71 -5 64 13 -8 22 60 19 74 -3z m-95 3 c-7 -2 -19 -2 -25 0
-7 3 -2 5 12 5 14 0 19 -2 13 -5z m-558 -23 c-3 -5 -11 -10 -16 -10 -6 0 -7 5
-4 10 3 6 11 10 16 10 6 0 7 -4 4 -10z m41 -47 c-10 -10 -19 5 -10 18 6 11 8
11 12 0 2 -7 1 -15 -2 -18z m-388 -50 c-10 -2 -28 -2 -40 0 -13 2 -5 4 17 4
22 1 32 -1 23 -4z m106 -38 c3 -8 1 -15 -4 -15 -5 0 -12 -11 -16 -25 -7 -27
-24 -34 -24 -10 0 19 21 65 31 65 4 0 9 -7 13 -15z m262 -30 c-2 -7 1 -18 7
-25 9 -10 9 -11 0 -6 -9 5 -13 -1 -13 -18 0 -14 -4 -26 -10 -26 -5 0 -8 21 -6
48 4 57 3 55 17 47 6 -4 8 -13 5 -20z m-491 5 c-3 -5 2 -10 12 -10 11 -1 4 -7
-17 -16 -19 -8 -42 -22 -52 -31 -10 -9 -18 -11 -18 -6 0 6 17 25 38 42 40 33
47 37 37 21z m295 -22 c0 -21 -3 -29 -10 -22 -5 5 -7 19 -4 32 9 31 14 27 14
-10z m140 8 c0 -7 -6 -20 -13 -30 -12 -16 -13 -14 -9 18 4 32 22 43 22 12z
m124 -27 c-3 -5 -10 -7 -15 -3 -5 3 -7 10 -3 15 3 5 10 7 15 3 5 -3 7 -10 3
-15z m900 -4 c8 -9 18 -14 22 -13 4 2 14 -8 22 -22 11 -18 12 -21 2 -12 -8 6
-20 12 -28 12 -8 0 -27 11 -44 25 -26 22 -27 25 -9 25 11 0 26 -7 35 -15z
m-146 -25 c28 -37 29 -60 2 -29 l-21 24 13 -24 c12 -22 5 -35 -17 -32 -3 1
-30 -29 -61 -66 -31 -38 -112 -124 -180 -193 -69 -69 -141 -142 -161 -162 -20
-21 -42 -38 -49 -38 -7 0 -17 -7 -22 -16 -6 -11 -16 -14 -32 -9 -17 5 -21 12
-16 31 3 13 9 35 12 49 5 19 2 25 -10 25 -10 0 -15 4 -11 10 3 5 33 12 66 16
33 4 57 9 54 12 -2 3 4 11 15 19 26 18 25 31 -2 44 -19 7 -16 8 15 4 42 -7 67
2 46 16 -10 6 -8 9 9 9 13 0 21 4 18 9 -3 5 1 12 10 15 8 3 12 10 9 16 -3 6 0
13 9 16 8 3 13 14 11 24 -3 13 7 23 33 36 20 9 41 23 45 30 4 8 16 14 25 14
15 0 15 2 2 10 -12 8 -8 10 15 11 24 1 25 3 8 6 -13 2 -23 9 -23 15 0 6 11 8
28 4 l27 -6 -25 16 c-23 14 -23 15 -3 11 15 -3 20 -1 16 9 -2 7 -17 15 -31 17
-15 2 -2 5 28 6 l55 3 -45 13 c-26 8 -36 13 -23 14 12 1 43 12 69 26 60 32 66
31 92 -5z m-1208 -18 c0 -5 15 -8 33 -7 35 2 57 -3 57 -15 0 -4 -39 -8 -87 -9
-89 -1 -178 7 -169 16 16 17 166 30 166 15z m330 -57 c36 -8 91 -17 123 -20
40 -5 55 -10 50 -18 -5 -8 -2 -8 9 1 12 10 21 9 44 -3 28 -15 28 -15 -41 -16
-104 -3 -133 1 -181 22 -24 10 -68 21 -97 25 -28 4 -61 13 -72 22 -18 13 -14
14 40 8 33 -4 89 -13 125 -21z m-250 -1 c0 -8 -19 -13 -24 -6 -3 5 1 9 9 9 8
0 15 -2 15 -3z m-195 -14 c10 16 25 12 19 -5 -5 -11 -2 -13 10 -9 11 4 16 0
16 -14 0 -11 7 -27 15 -36 18 -17 20 -42 4 -51 -6 -5 -3 -13 10 -22 12 -8 26
-11 31 -8 6 4 9 1 8 -7 -2 -7 3 -12 10 -10 8 1 11 -2 7 -8 -3 -5 3 -20 14 -32
23 -24 27 -43 11 -53 -6 -4 -9 -1 -8 6 4 17 -36 35 -90 42 -30 4 -40 2 -35 -6
4 -7 -1 -6 -10 2 -15 12 -17 11 -18 -10 -1 -20 -2 -18 -10 9 -10 34 -18 39
-36 21 -7 -7 -9 -3 -5 17 4 22 2 26 -12 21 -12 -5 -16 0 -16 23 0 16 -4 40
-10 55 -7 17 -7 24 0 20 5 -3 15 5 22 19 6 14 17 26 25 26 7 0 13 5 13 11 0 8
4 8 14 0 10 -8 16 -9 21 -1z m119 -27 c-10 -40 -15 -42 -12 -5 1 18 6 32 10
32 5 0 5 -12 2 -27z m-44 -8 c0 -8 -4 -15 -10 -15 -5 0 -10 7 -10 15 0 8 5 15
10 15 6 0 10 -7 10 -15z m980 5 c0 -5 -5 -10 -11 -10 -5 0 -7 5 -4 10 3 6 8
10 11 10 2 0 4 -4 4 -10z m-865 -56 c-13 -16 -14 -15 -7 26 5 32 6 33 12 10 3
-14 1 -30 -5 -36z m-374 -6 c-2 -29 -6 -47 -8 -40 -3 6 -8 10 -13 7 -9 -5 3
56 14 74 11 17 11 15 7 -41z m552 35 c-5 -12 -3 -14 7 -8 10 6 11 2 6 -21 -10
-39 -25 -53 -19 -17 4 22 2 25 -6 13 -9 -13 -11 -13 -11 2 0 23 11 48 21 48 4
0 5 -7 2 -17z m673 -8 c-11 -8 -31 -15 -45 -15 -43 0 1 26 49 29 11 0 10 -4
-4 -14z m-790 -41 c-3 -8 -10 -13 -15 -10 -5 4 -4 16 2 31 9 18 13 20 15 9 2
-8 1 -22 -2 -30z m351 26 c1 -11 -2 -18 -8 -15 -11 7 -12 35 -1 35 4 0 8 -9 9
-20z m829 5 c-10 -7 -44 -17 -75 -20 -99 -11 -101 -12 -127 -70 -26 -56 -41
-75 -24 -30 33 86 63 115 125 116 22 0 49 4 60 9 11 5 29 9 40 9 19 0 19 0 1
-14z m-656 -54 c0 -10 -7 -6 -20 14 -11 17 -20 35 -20 40 1 17 40 -36 40 -54z
m256 34 c-11 -8 -22 -12 -25 -9 -6 6 19 24 34 24 6 -1 1 -7 -9 -15z m-626 -6
c0 -6 7 -9 15 -5 24 9 23 -44 -2 -79 -14 -19 -14 -17 -8 23 4 24 3 42 -3 42
-5 0 -15 -19 -22 -42 -17 -56 -26 -30 -10 28 11 40 30 60 30 33z m86 1 c13
-13 0 -153 -15 -158 -6 -2 -9 -8 -5 -13 3 -5 2 -8 -3 -7 -4 1 -18 -3 -30 -10
-30 -17 -29 -12 8 34 29 36 31 44 27 102 -4 62 -1 71 18 52z m64 -21 c0 -5 -4
-9 -10 -9 -5 0 -10 7 -10 16 0 8 5 12 10 9 6 -3 10 -10 10 -16z m50 7 c0 -2
-8 -10 -17 -17 -16 -13 -17 -12 -4 4 13 16 21 21 21 13z m903 -21 c3 -18 -1
-29 -14 -36 -16 -8 -19 -6 -19 12 0 21 -1 22 -20 4 -14 -12 -18 -25 -14 -41 6
-24 -11 -35 -18 -13 -2 7 -13 9 -26 5 -18 -6 -20 -11 -12 -26 14 -26 13 -53
-2 -48 -15 5 -48 -34 -48 -56 0 -9 -8 -16 -20 -16 -11 0 -20 4 -20 8 0 5 -18
15 -40 22 -21 7 -37 17 -34 22 3 4 10 6 15 2 6 -3 7 4 4 19 -5 20 3 32 49 74
66 60 128 93 177 93 31 0 37 -4 42 -25z m-1733 -63 c21 -50 83 -122 126 -148
15 -10 9 -11 -34 -8 -34 3 -51 0 -47 -6 3 -6 12 -10 20 -10 8 0 37 -5 66 -11
l52 -11 -33 -16 c-29 -14 -31 -16 -12 -23 11 -4 69 -15 128 -24 60 -9 123 -21
139 -25 27 -7 25 -8 -20 -10 l-50 -2 40 -9 c22 -5 56 -11 76 -13 153 -20 209
-26 319 -32 69 -4 130 -8 137 -8 27 -4 60 -55 65 -100 3 -26 13 -55 23 -66 9
-10 14 -23 11 -28 -3 -5 4 -18 17 -28 l22 -19 -20 24 -20 25 33 -23 c18 -12
30 -27 27 -32 -4 -5 2 -6 11 -2 10 3 15 2 12 -3 -4 -5 6 -9 20 -10 15 -1 54
-7 87 -14 39 -8 119 -11 232 -8 94 2 169 0 167 -4 -3 -5 -75 -8 -160 -8 -115
0 -155 -3 -152 -12 7 -19 361 -8 398 13 10 6 0 8 -29 9 -62 0 -48 7 27 13 35
3 61 3 59 0 -3 -2 -8 -4 -11 -4 -3 1 -14 -6 -23 -15 -49 -43 -98 -74 -110 -69
-9 3 -11 0 -7 -7 5 -8 2 -9 -10 -5 -10 4 -15 3 -11 -3 6 -10 -3 -13 -37 -13
-9 0 -16 -5 -15 -11 2 -10 -162 -73 -213 -81 -139 -23 -189 -27 -298 -21 -119
5 -199 20 -292 53 -74 26 -206 91 -226 110 -9 10 -22 18 -28 18 -6 1 -10 6 -9
13 2 6 -3 9 -10 7 -6 -3 -41 18 -75 46 -48 39 -62 56 -59 71 4 15 2 17 -7 9
-9 -8 -17 -6 -30 7 -9 10 -13 22 -9 27 5 4 3 5 -4 1 -7 -4 -19 6 -29 24 -10
16 -21 30 -25 30 -4 0 -15 12 -25 28 -17 26 -17 27 2 12 10 -8 3 2 -18 22 -52
53 -162 273 -125 251 7 -3 4 3 -6 14 -10 12 -27 54 -38 95 -26 102 -25 105 11
20z m792 -19 c-6 -2 -9 -10 -6 -15 4 -7 2 -8 -5 -4 -13 9 -5 26 12 25 9 0 8
-2 -1 -6z m-237 -32 c-8 -13 -35 -15 -35 -2 0 5 8 11 18 13 21 5 26 2 17 -11z
m-54 -8 c10 -11 10 -14 2 -9 -7 4 -13 2 -13 -3 0 -6 -4 -11 -10 -11 -5 0 -10
9 -10 20 0 24 13 26 31 3z m908 -23 c-33 -41 -39 -46 -39 -32 0 9 56 72 65 72
3 0 -9 -18 -26 -40z m-984 10 c-3 -5 -13 -10 -21 -10 -8 0 -14 5 -14 10 0 6 9
10 21 10 11 0 17 -4 14 -10z m994 -82 c-10 -7 -8 -8 7 -4 14 4 28 -2 45 -21
l24 -27 -27 17 c-34 21 -40 21 -66 -1 l-22 -19 25 -23 c14 -13 25 -32 25 -42
0 -25 -17 -23 -26 4 -6 19 -7 19 -16 5 -5 -10 -18 -17 -28 -17 -13 0 -17 -5
-14 -15 3 -8 11 -13 17 -12 22 4 18 -39 -7 -68 -14 -16 -27 -27 -29 -25 -1 3
-14 26 -27 52 l-24 46 29 42 c47 68 106 131 117 124 6 -4 5 -10 -3 -16z m87
-4 c13 -14 24 -32 24 -42 0 -9 -3 -12 -8 -6 -4 5 -20 24 -36 42 -17 18 -24 32
-17 32 8 0 24 -11 37 -26z m-213 -61 c-68 -102 -90 -123 -132 -122 l-36 1 31
8 c49 11 87 44 113 95 18 37 56 85 67 85 1 0 -18 -30 -43 -67z m-1060 10 c-7
-2 -21 -2 -30 0 -10 3 -4 5 12 5 17 0 24 -2 18 -5z m917 -38 c-19 -19 -41 -35
-49 -35 -9 0 3 16 29 39 54 47 67 44 20 -4z m309 -24 c0 -14 -1 -14 -6 -1 -3
8 -10 24 -15 35 -9 20 -9 20 6 1 9 -11 16 -27 15 -35z m-1162 33 c-3 -3 -12
-4 -19 -1 -8 3 -5 6 6 6 11 1 17 -2 13 -5z m282 -60 c9 -8 -105 -2 -124 6 -12
5 8 6 50 3 39 -3 72 -7 74 -9z m141 -12 c0 -4 -21 -6 -47 -4 -83 5 -90 9 -20
11 37 0 67 -2 67 -7z m68 -9 c-10 -2 -28 -2 -40 0 -13 2 -5 4 17 4 22 1 32 -1
23 -4z m105 -10 c-7 -2 -21 -2 -30 0 -10 3 -4 5 12 5 17 0 24 -2 18 -5z m147
-3 c0 -5 -4 -10 -10 -10 -5 0 -10 5 -10 10 0 6 5 10 10 10 6 0 10 -4 10 -10z
m223 -38 c-4 -15 -3 -15 6 -2 10 13 13 13 26 -4 23 -30 20 -49 -5 -36 -16 9
-20 8 -20 -5 0 -9 -4 -13 -10 -10 -5 3 -10 1 -10 -5 0 -6 -4 -9 -9 -6 -5 3
-11 0 -14 -7 -7 -18 -87 -20 -87 -2 0 8 23 37 52 64 38 37 55 47 64 40 7 -6
10 -18 7 -27z m627 12 c0 -8 -19 -13 -24 -6 -3 5 1 9 9 9 8 0 15 -2 15 -3z
m-829 -13 c-17 -11 -6 -29 23 -41 19 -8 19 -9 -6 -9 -19 -1 -28 4 -28 14 0 9
-7 18 -15 21 -25 10 -17 24 13 24 19 0 23 -3 13 -9z m903 -14 c-3 -9 -26 -15
-67 -16 -74 -3 -72 7 4 15 29 3 55 7 58 9 8 9 10 5 5 -8z m-57 -63 c-3 -3 -12
-4 -19 -1 -8 3 -5 6 6 6 11 1 17 -2 13 -5z m-47 -69 c-8 -9 -28 -15 -54 -14
l-41 1 40 13 c57 19 71 19 55 0z m-44 -44 c-3 -5 -38 -9 -78 -8 -66 0 -68 1
-23 6 93 11 106 11 101 2z m-269 -37 c-3 -3 -12 -4 -19 -1 -8 3 -5 6 6 6 11 1
17 -2 13 -5z m221 -1 c-10 -2 -28 -2 -40 0 -13 2 -5 4 17 4 22 1 32 -1 23 -4z
m-95 -10 c-7 -2 -19 -2 -25 0 -7 3 -2 5 12 5 14 0 19 -2 13 -5z m-175 -10
c-10 -2 -26 -2 -35 0 -10 3 -2 5 17 5 19 0 27 -2 18 -5z m-160 -10 c-10 -2
-28 -2 -40 0 -13 2 -5 4 17 4 22 1 32 -1 23 -4z"/>
<path d="M3290 3241 c0 -6 4 -13 10 -16 6 -3 7 1 4 9 -7 18 -14 21 -14 7z"/>
<path d="M2255 3221 c-3 -5 -2 -12 3 -15 5 -3 9 1 9 9 0 17 -3 19 -12 6z"/>
<path d="M2085 3169 c-4 -6 -5 -12 -2 -15 2 -3 7 2 10 11 7 17 1 20 -8 4z"/>
<path d="M3088 2643 c7 -3 16 -2 19 1 4 3 -2 6 -13 5 -11 0 -14 -3 -6 -6z"/>
<path d="M3226 2591 c-4 -5 -2 -12 3 -15 5 -4 12 -2 15 3 4 5 2 12 -3 15 -5 4
-12 2 -15 -3z"/>
<path d="M3384 2019 c-3 -6 -2 -15 3 -20 5 -5 9 -1 9 11 0 23 -2 24 -12 9z"/>
<path d="M2380 2846 c0 -2 11 -6 25 -8 14 -3 25 -1 25 3 0 5 -11 9 -25 9 -14
0 -25 -2 -25 -4z"/>
<path d="M1602 2343 c-2 -26 -1 -26 12 -8 8 11 12 23 10 27 -10 16 -20 7 -22
-19z"/>
<path d="M1596 1996 c9 -23 104 -38 104 -16 0 6 -16 10 -36 10 -19 0 -44 5
-54 10 -16 8 -18 7 -14 -4z"/>
<path d="M1638 1939 c-7 -5 -8 -9 -3 -9 6 0 5 -4 -2 -8 -6 -4 11 -7 38 -6 27
1 50 6 52 10 3 12 -69 22 -85 13z"/>
<path d="M1786 1922 c-7 -12 39 -18 214 -28 251 -15 368 -19 364 -13 -5 9
-146 21 -414 34 -63 3 -125 8 -136 11 -12 3 -25 1 -28 -4z"/>
<path d="M1265 3620 c-4 -6 -11 -8 -16 -5 -5 4 -9 1 -9 -5 0 -6 -9 -20 -19
-31 -22 -24 -21 -55 2 -53 12 1 14 -6 10 -31 -14 -85 101 -178 197 -159 48 10
93 76 87 128 -11 78 -120 150 -197 129 -34 -9 -38 -8 -35 8 4 21 -10 35 -20
19z m128 -135 c36 -25 51 -65 24 -65 -17 0 -107 57 -107 68 0 30 36 28 83 -3z"/>
<path d="M3680 3505 c-30 -18 -82 -46 -115 -61 -33 -16 -61 -29 -63 -30 -2 -1
32 -66 44 -82 1 -2 20 8 41 22 20 14 41 26 45 26 19 0 5 -32 -26 -64 l-35 -34
20 -41 c11 -23 23 -41 28 -41 12 0 91 90 91 104 0 7 22 11 58 11 31 1 65 4 75
8 17 6 17 9 -3 46 -22 44 -36 56 -45 41 -8 -13 -85 -13 -85 0 0 8 26 24 77 45
8 4 -32 85 -41 84 -6 0 -36 -16 -66 -34z"/>
<path d="M1140 3314 c-31 -49 -30 -107 1 -140 36 -39 96 -66 146 -66 37 0 51
6 79 32 45 44 56 106 24 132 -31 25 -49 22 -56 -9 -4 -16 -11 -34 -17 -40 -13
-18 -68 -16 -95 3 -25 17 -29 44 -7 44 14 0 35 29 35 48 0 6 -12 13 -27 16
-16 4 -35 9 -44 12 -12 3 -24 -7 -39 -32z"/>
<path d="M942 3078 c-72 -188 -102 -360 -102 -578 0 -218 30 -390 102 -578 35
-92 28 -90 123 -46 28 12 67 30 88 38 33 14 37 18 27 35 -29 56 -81 254 -95
364 -19 154 -19 233 0 380 14 105 67 305 95 357 9 17 7 22 -12 29 -13 6 -60
26 -104 45 -45 20 -84 36 -86 36 -3 0 -19 -37 -36 -82z"/>
<path d="M3935 3124 c-44 -19 -90 -39 -103 -45 -18 -7 -21 -13 -13 -27 21 -40
73 -213 87 -292 39 -223 24 -472 -41 -679 -19 -62 -39 -121 -45 -131 -9 -17
-7 -22 12 -29 13 -6 60 -26 106 -46 46 -20 85 -35 87 -33 12 13 61 152 85 245
38 145 50 246 50 413 0 161 -12 266 -45 398 -26 102 -84 262 -94 262 -3 0 -42
-16 -86 -36z"/>
<path d="M1294 1866 c-9 -24 -290 -206 -318 -206 -26 0 -19 -27 23 -83 21 -29
46 -66 55 -84 9 -17 20 -34 25 -38 15 -8 121 35 121 50 0 7 -11 20 -25 29 -31
20 -32 51 -2 67 12 7 59 36 103 65 45 29 93 56 108 60 32 8 33 24 2 61 -13 15
-31 43 -40 61 -17 33 -43 42 -52 18z"/>
<path d="M3637 1825 c-40 -47 -76 -118 -77 -149 0 -11 9 -39 20 -62 40 -82
139 -106 207 -50 38 31 59 37 73 21 16 -19 -1 -48 -44 -74 -63 -39 -63 -46 1
-80 57 -31 83 -34 83 -8 0 7 12 24 26 38 42 38 74 96 80 142 5 34 1 49 -18 76
-57 83 -125 98 -201 43 -47 -33 -71 -40 -83 -21 -10 17 17 59 48 75 41 21 35
40 -23 68 -28 15 -51 26 -52 26 -1 -1 -19 -21 -40 -45z"/>
<path d="M3427 1555 c-48 -45 -64 -55 -52 -32 8 14 -77 -74 -97 -101 -7 -10
-39 -31 -71 -47 -66 -33 -76 -48 -54 -73 20 -22 40 -91 35 -122 -3 -23 -4 -23
-41 15 -20 22 -42 57 -47 78 -6 20 -14 37 -18 37 -4 0 -42 -18 -84 -40 l-78
-41 51 -65 c60 -76 111 -120 156 -135 35 -11 73 -68 73 -108 0 -11 4 -22 10
-26 8 -5 150 60 150 69 0 2 -16 28 -35 58 -25 36 -34 59 -29 73 15 48 15 152
0 211 -9 34 -16 67 -16 73 0 24 37 -10 130 -118 52 -61 98 -111 101 -111 4 0
12 -13 19 -30 14 -34 42 -39 62 -11 7 10 51 51 98 91 47 41 86 79 88 85 4 16
-50 104 -63 104 -5 0 -22 -17 -36 -38 -15 -21 -40 -47 -56 -59 l-30 -21 -23
21 c-26 24 -32 14 54 84 l39 30 -33 37 c-18 20 -36 37 -40 37 -4 0 -28 -21
-54 -47 l-47 -47 -22 23 -22 23 45 39 c25 21 53 42 63 45 9 3 17 11 17 18 0
17 -59 66 -80 66 -9 0 -38 -20 -63 -45z m-57 -48 c0 -2 -10 -12 -22 -23 l-23
-19 19 23 c18 21 26 27 26 19z"/>
<path d="M1384 1560 c-58 -33 -104 -83 -135 -148 -39 -80 -7 -174 78 -232 29
-20 49 -25 92 -24 66 0 106 19 162 75 90 90 106 222 36 297 -62 67 -152 79
-233 32z m144 -132 c3 -22 -8 -40 -49 -83 -53 -56 -93 -71 -106 -39 -8 22 14
59 67 110 52 51 83 55 88 12z"/>
<path d="M1755 1346 c-38 -17 -60 -42 -80 -90 -21 -50 -14 -78 37 -138 33 -40
38 -51 28 -63 -20 -25 -37 -18 -82 35 -24 27 -46 50 -49 50 -7 0 -49 -110 -49
-129 0 -6 4 -11 9 -11 5 0 40 -20 77 -45 59 -40 73 -45 122 -45 50 0 58 3 92
38 40 39 58 92 46 134 -3 13 -24 43 -46 67 -44 49 -46 64 -11 69 16 3 35 -8
61 -33 40 -39 60 -39 60 -1 0 12 7 31 15 42 19 26 19 43 -2 51 -10 3 -34 18
-53 33 -63 48 -121 60 -175 36z"/>
<path d="M2803 1233 c9 -2 23 -2 30 0 6 3 -1 5 -18 5 -16 0 -22 -2 -12 -5z"/>
<path d="M2785 1209 c-102 -21 -116 -23 -95 -9 8 5 10 10 4 10 -6 0 -17 -7
-24 -15 -7 -8 -21 -15 -31 -15 -23 0 -34 -17 -20 -34 16 -19 82 -351 74 -371
-8 -23 15 -35 43 -25 20 8 124 28 232 46 l32 5 0 64 c0 71 -5 76 -56 51 -16
-8 -50 -17 -75 -21 -43 -6 -47 -5 -52 17 -4 12 -7 26 -7 30 0 9 54 20 96 20
42 0 46 6 38 56 -9 60 -15 65 -55 49 -19 -8 -48 -17 -66 -20 -27 -5 -32 -3
-38 20 -9 36 1 42 75 49 95 8 92 6 68 64 -24 57 -18 56 -143 29z"/>
<path d="M2232 1190 c-4 -3 -8 -70 -10 -150 -2 -80 -7 -174 -12 -210 -5 -36
-6 -68 -2 -72 4 -3 39 -8 77 -10 l70 -3 -4 73 c-3 62 -1 72 14 72 21 0 57 -81
53 -118 -3 -27 -2 -27 75 -35 43 -5 81 -6 84 -3 8 8 -16 93 -39 140 -19 38
-19 38 0 60 30 33 42 61 42 101 0 64 -37 114 -100 134 -40 12 -237 29 -248 21z
m186 -126 c30 -21 29 -61 -2 -76 -48 -21 -69 8 -46 66 11 30 18 32 48 10z"/>
</g>
</svg>
